<?xml version="1.0" encoding="iso-8859-1"?>
<!-- Generator: Adobe Illustrator 19.0.0, SVG Export Plug-In . SVG Version: 6.00 Build 0)  -->
<svg version="1.1" id="Layer_1" xmlns="http://www.w3.org/2000/svg" xmlns:xlink="http://www.w3.org/1999/xlink" x="0px"
     y="0px"
     viewBox="0 0 512.003 512.003" style="enable-background:new 0 0 512.003 512.003;" xml:space="preserve">
<g>
	<g>
		<g>
			<path d="M256.015,263.959c4.474,0,8.099-3.625,8.099-8.099v-20.158c0-4.474-3.625-8.099-8.099-8.099
				c-4.474,0-8.099,3.625-8.099,8.099v20.158C247.916,260.334,251.541,263.959,256.015,263.959z"
                  fill="#AE8959"/>
            <path d="M373.538,385.914h-62.284v-14.147c4.586-2.431,9.042-5.155,13.326-8.207c0.268-0.191,0.516-0.4,0.754-0.616
				c7.166-5.191,13.741-11.167,19.586-17.814c0.191-0.181,0.375-0.371,0.551-0.575c5.138-5.934,9.622-12.315,13.443-19.035
				c0.019-0.035,0.039-0.068,0.057-0.103c0.793-1.397,1.556-2.81,2.289-4.236c0.092-0.179,0.186-0.359,0.278-0.538
				c1.087-2.141,2.109-4.314,3.063-6.516c0.181-0.418,0.359-0.837,0.535-1.257c0.387-0.921,0.76-1.848,1.123-2.779
				c0.232-0.597,0.464-1.194,0.688-1.796c0.213-0.573,0.42-1.148,0.624-1.725c0.258-0.732,0.509-1.468,0.753-2.206
				c0.221-0.667,0.435-1.337,0.645-2.01c0.232-0.747,0.459-1.498,0.677-2.252c0.135-0.469,0.272-0.936,0.402-1.407
				c0.294-1.065,0.573-2.136,0.838-3.214c0.097-0.395,0.187-0.792,0.28-1.189c0.215-0.916,0.419-1.836,0.612-2.759
				c0.067-0.322,0.139-0.643,0.204-0.964c0.235-1.174,0.45-2.355,0.651-3.542c0.056-0.334,0.11-0.668,0.163-1.003
				c0.197-1.226,0.38-2.457,0.539-3.697c0.002-0.019,0.006-0.04,0.009-0.059c0.001-0.005,0.001-0.012,0.002-0.016
				c0.001-0.011,0.003-0.022,0.004-0.032c0.01-0.078,0.016-0.158,0.026-0.235c0.006-0.059,0.013-0.109,0.021-0.177
				c0-0.002,0-0.004,0-0.008c0.596-4.826,0.904-9.746,0.904-14.635v-27.559c17.829-4.9,30.921-21.407,30.921-40.442
				c0-14.678-7.787-27.852-19.526-35.362c7.202-50.469-2.22-90.993-28.051-120.516c-0.216-0.247-0.447-0.473-0.685-0.687
				c-4.559-5.154-9.277-9.557-13.897-13.298c-3.477-2.815-8.577-2.276-11.391,1.196c-2.815,3.476-2.28,8.575,1.197,11.391
				c5.025,4.069,9.554,8.501,13.61,13.273c11.046,13.04,18.502,28.652,22.327,46.73c0.023,0.105,0.046,0.208,0.068,0.313
				c0.175,0.84,0.337,1.689,0.497,2.539c0.067,0.357,0.136,0.714,0.201,1.074c0.123,0.684,0.235,1.375,0.349,2.066
				c0.09,0.554,0.179,1.108,0.263,1.666c0.082,0.544,0.159,1.093,0.234,1.641c0.102,0.743,0.2,1.489,0.29,2.24
				c0.049,0.396,0.095,0.794,0.14,1.192c0.107,0.951,0.206,1.907,0.295,2.87c0.021,0.224,0.042,0.446,0.063,0.671
				c0.787,8.95,0.813,18.419,0.07,28.399c-4.389-15.83-13.961-35.281-31.296-45.439c-17.766-10.409-39.058-8.804-63.282,4.771
				c-62.029,34.764-128.267,23.182-128.853,23.077c-23.522-4.565-41.261-26.568-41.261-51.178c0-28.146,22.899-51.046,51.047-51.046
				c10.471,0,20.541,3.158,29.118,9.132c2.604,1.812,6.026,1.94,8.758,0.321c19.995-11.85,53.549-22.939,79.958-19.302
				c0.079,0.011,0.158,0.021,0.239,0.029c0.005,0.001,0.039,0.004,0.086,0.01c0.865,0.107,7.626,1.002,17.124,3.949
				c0.122,0.038,0.243,0.076,0.366,0.113c0.219,0.069,0.442,0.14,0.664,0.211c0.343,0.11,0.688,0.221,1.038,0.337
				c0.072,0.024,0.146,0.048,0.218,0.071c5.138,1.705,10.962,3.995,17.057,7.053c3.995,2.002,8.865,0.39,10.871-3.608
				c2.005-3.998,0.39-8.865-3.608-10.871c-4.455-2.234-8.781-4.102-12.864-5.669c-0.064-0.026-0.123-0.058-0.187-0.082
				c-1.317-0.503-2.599-0.963-3.861-1.405c-0.18-0.064-0.36-0.125-0.54-0.187c-0.864-0.298-1.711-0.583-2.544-0.853
				c-0.232-0.076-0.465-0.152-0.695-0.226c-0.434-0.138-0.863-0.274-1.287-0.405c-0.35-0.108-0.692-0.212-1.036-0.315
				c-0.549-0.165-1.087-0.325-1.619-0.478c-0.383-0.111-0.763-0.219-1.137-0.324c-0.301-0.084-0.6-0.168-0.895-0.248
				c-0.589-0.161-1.164-0.314-1.726-0.459c-0.212-0.055-0.416-0.106-0.623-0.159c-0.479-0.122-0.948-0.239-1.406-0.35
				c-0.154-0.038-0.312-0.077-0.464-0.113c-0.583-0.139-1.145-0.269-1.69-0.392c-0.127-0.029-0.252-0.056-0.378-0.084
				c-1.15-0.256-2.209-0.474-3.166-0.66c-0.066-0.013-0.131-0.026-0.197-0.038c-0.984-0.189-1.855-0.343-2.606-0.468
				c-0.026-0.004-0.053-0.009-0.079-0.013c-0.368-0.06-0.707-0.115-1.014-0.161c-0.031-0.005-0.058-0.009-0.09-0.013
				c-0.279-0.042-0.532-0.079-0.755-0.11c-0.022-0.003-0.044-0.006-0.066-0.01c-0.218-0.03-0.401-0.055-0.559-0.076
				c-0.055-0.008-0.096-0.012-0.145-0.018c-0.086-0.011-0.159-0.019-0.221-0.027c-0.026-0.003-0.07-0.009-0.092-0.011
				c-0.893-0.122-1.792-0.23-2.695-0.325c-27.989-2.934-60.816,7.08-83.256,19.268c-10.292-6.053-21.945-9.231-33.998-9.231
				c-37.079,0-67.245,30.166-67.245,67.244c0,15.733,5.506,31.177,15.504,43.484c0.58,0.714,1.176,1.411,1.781,2.098
				c0.195,0.222,0.397,0.438,0.596,0.658c0.417,0.461,0.837,0.919,1.265,1.367c0.238,0.249,0.479,0.493,0.72,0.739
				c0.407,0.414,0.818,0.822,1.234,1.225c0.248,0.24,0.497,0.478,0.748,0.715c0.44,0.413,0.886,0.815,1.335,1.215
				c0.23,0.205,0.458,0.413,0.691,0.614c0.577,0.499,1.162,0.986,1.753,1.464c0.109,0.087,0.214,0.179,0.323,0.267
				c0.717,0.572,1.446,1.128,2.184,1.67c0.149,0.109,0.301,0.213,0.451,0.321c0.59,0.425,1.184,0.842,1.786,1.248
				c0.216,0.146,0.435,0.286,0.653,0.43c0.555,0.364,1.113,0.721,1.678,1.068c0.221,0.136,0.444,0.271,0.667,0.405
				c0.597,0.357,1.2,0.705,1.807,1.043c0.182,0.102,0.364,0.205,0.547,0.306c0.763,0.416,1.532,0.818,2.31,1.203
				c0.026,0.013,0.051,0.027,0.077,0.039c1.689,0.834,3.412,1.591,5.163,2.274c0.109,0.042,0.219,0.082,0.328,0.124
				c0.746,0.286,1.497,0.559,2.253,0.819c0.165,0.056,0.33,0.111,0.496,0.166c0.334,0.111,0.664,0.23,0.999,0.336v15.633
				c-17.829,4.899-30.921,21.407-30.921,40.442s13.092,35.543,30.921,40.442v27.559c0,4.891,0.308,9.814,0.905,14.642
				c0,0.002,0,0.003,0,0.005l0.045,0.406c4.983,39.19,29.02,71.958,62.068,89.481v14.215h-62.284
				c-51.498,0-93.394,41.898-93.394,93.396v11.629c0,11.611,9.447,21.058,21.058,21.058h76.746c4.474,0,8.099-3.625,8.099-8.099
				s-3.625-8.099-8.099-8.099H66.131c-2.679,0-4.859-2.179-4.859-4.859v-11.629c0-42.567,34.629-77.197,77.195-77.197h62.783
				c0.051,0.225,0.119,0.445,0.176,0.667c0.058,0.224,0.111,0.448,0.177,0.671c0.089,0.297,0.192,0.59,0.294,0.883
				c0.071,0.205,0.135,0.413,0.212,0.616c0.127,0.334,0.272,0.663,0.417,0.992c0.069,0.159,0.13,0.32,0.203,0.477
				c0.224,0.477,0.464,0.95,0.724,1.417c0.097,0.175,0.208,0.347,0.311,0.521c0.174,0.296,0.346,0.592,0.533,0.883
				c0.131,0.202,0.274,0.401,0.411,0.6c0.177,0.257,0.351,0.515,0.539,0.769c0.153,0.207,0.318,0.41,0.478,0.615
				c0.189,0.241,0.377,0.483,0.577,0.719c0.173,0.206,0.355,0.409,0.537,0.612c0.203,0.229,0.406,0.458,0.619,0.682
				c0.192,0.204,0.392,0.405,0.592,0.605c0.217,0.218,0.436,0.436,0.663,0.651c0.209,0.2,0.425,0.396,0.643,0.592
				c0.233,0.211,0.469,0.419,0.711,0.626c0.225,0.192,0.454,0.383,0.686,0.572c0.249,0.203,0.504,0.405,0.762,0.605
				c0.24,0.186,0.482,0.37,0.728,0.552c0.266,0.197,0.539,0.39,0.813,0.582c0.253,0.177,0.505,0.354,0.766,0.529
				c0.284,0.191,0.577,0.377,0.869,0.564c0.265,0.168,0.527,0.337,0.797,0.502c0.305,0.186,0.618,0.366,0.931,0.547
				c0.272,0.158,0.541,0.318,0.82,0.471c0.33,0.184,0.672,0.361,1.011,0.539c0.273,0.144,0.542,0.291,0.821,0.431
				c0.38,0.191,0.771,0.376,1.161,0.56c0.251,0.12,0.496,0.243,0.751,0.36c0.641,0.294,1.294,0.579,1.959,0.856
				c0.21,0.088,0.429,0.169,0.64,0.254c0.472,0.19,0.944,0.381,1.428,0.563c0.286,0.108,0.582,0.208,0.873,0.313
				c0.42,0.151,0.839,0.303,1.268,0.449c0.318,0.107,0.641,0.208,0.963,0.312c0.414,0.133,0.826,0.267,1.246,0.394
				c0.337,0.102,0.68,0.199,1.023,0.297c0.416,0.12,0.832,0.239,1.254,0.352c0.353,0.095,0.711,0.185,1.068,0.275
				c0.423,0.108,0.848,0.214,1.278,0.315c0.363,0.086,0.73,0.168,1.097,0.249c0.434,0.096,0.871,0.191,1.312,0.282
				c0.371,0.077,0.745,0.15,1.121,0.222c0.447,0.085,0.897,0.168,1.35,0.247c0.379,0.067,0.758,0.132,1.14,0.193
				c0.461,0.075,0.928,0.146,1.394,0.214c0.381,0.056,0.763,0.111,1.148,0.163c0.479,0.065,0.964,0.123,1.449,0.18
				c0.382,0.045,0.763,0.092,1.148,0.132c0.501,0.053,1.009,0.099,1.515,0.145c0.377,0.035,0.752,0.07,1.132,0.1
				c0.537,0.042,1.079,0.076,1.621,0.11c0.357,0.023,0.713,0.049,1.073,0.068c0.607,0.031,1.22,0.053,1.834,0.075
				c0.302,0.011,0.602,0.026,0.906,0.034c0.921,0.024,1.848,0.038,2.783,0.038s1.862-0.013,2.783-0.038
				c0.303-0.008,0.602-0.024,0.903-0.034c0.615-0.022,1.23-0.042,1.838-0.075c0.359-0.018,0.711-0.045,1.066-0.067
				c0.544-0.035,1.09-0.068,1.628-0.11c0.376-0.03,0.747-0.066,1.121-0.099c0.512-0.046,1.023-0.093,1.528-0.146
				c0.379-0.04,0.755-0.085,1.131-0.131c0.494-0.058,0.985-0.118,1.472-0.182c0.376-0.051,0.747-0.105,1.12-0.159
				c0.478-0.07,0.956-0.143,1.429-0.219c0.37-0.06,0.739-0.123,1.106-0.188c0.466-0.082,0.93-0.166,1.39-0.255
				c0.362-0.069,0.722-0.14,1.081-0.214c0.458-0.094,0.911-0.192,1.363-0.293c0.349-0.078,0.698-0.156,1.042-0.238
				c0.455-0.107,0.903-0.22,1.35-0.334c0.332-0.084,0.664-0.168,0.992-0.256c0.453-0.122,0.898-0.249,1.343-0.378
				c0.312-0.09,0.626-0.178,0.935-0.271c0.462-0.139,0.916-0.286,1.369-0.433c0.28-0.091,0.563-0.178,0.839-0.271
				c0.495-0.167,0.978-0.342,1.462-0.518c0.225-0.082,0.456-0.16,0.678-0.243c0.637-0.239,1.262-0.487,1.879-0.741
				c0.063-0.026,0.127-0.05,0.189-0.074c0.684-0.284,1.354-0.577,2.011-0.878c0.149-0.068,0.291-0.14,0.438-0.209
				c0.499-0.233,0.995-0.47,1.477-0.714c0.213-0.107,0.417-0.219,0.626-0.329c0.407-0.212,0.813-0.424,1.208-0.644
				c0.228-0.126,0.449-0.258,0.673-0.387c0.364-0.209,0.727-0.419,1.08-0.635c0.23-0.14,0.453-0.284,0.678-0.427
				c0.334-0.212,0.666-0.424,0.99-0.641c0.225-0.151,0.444-0.305,0.664-0.459c0.31-0.217,0.618-0.435,0.917-0.657
				c0.215-0.16,0.427-0.321,0.636-0.483c0.291-0.225,0.577-0.45,0.856-0.679c0.203-0.166,0.404-0.334,0.602-0.502
				c0.272-0.232,0.538-0.468,0.8-0.704c0.189-0.172,0.377-0.343,0.56-0.517c0.255-0.242,0.502-0.487,0.746-0.733
				c0.174-0.176,0.349-0.351,0.516-0.529c0.24-0.253,0.469-0.51,0.697-0.768c0.156-0.176,0.314-0.352,0.464-0.53
				c0.227-0.27,0.442-0.543,0.655-0.817c0.135-0.173,0.274-0.344,0.405-0.519c0.218-0.294,0.421-0.593,0.624-0.892
				c0.109-0.161,0.225-0.319,0.329-0.481c0.231-0.357,0.445-0.72,0.656-1.085c0.062-0.108,0.132-0.213,0.191-0.321
				c0.265-0.476,0.511-0.958,0.738-1.444c0.045-0.098,0.082-0.198,0.126-0.296c0.174-0.388,0.343-0.778,0.494-1.173
				c0.068-0.178,0.123-0.361,0.186-0.54c0.111-0.317,0.224-0.636,0.319-0.958c0.062-0.208,0.111-0.419,0.166-0.628
				c0.062-0.233,0.132-0.464,0.185-0.7h62.783c42.567,0,77.197,34.63,77.197,77.197v11.629c0,2.68-2.18,4.859-4.86,4.859h-276.54
				c-4.474,0-8.099,3.625-8.099,8.099c0,4.474,3.625,8.099,8.099,8.099h276.54c11.611,0,21.058-9.447,21.058-21.058v-11.629
				C466.934,427.812,425.036,385.914,373.538,385.914z M374.3,175.929c8.707,4.174,14.722,13.125,14.722,23.236
				c0,10.111-6.015,19.061-14.722,23.235V175.929z M137.733,222.401c-8.708-4.174-14.722-13.125-14.722-23.235
				c0-10.11,6.014-19.061,14.722-23.236V222.401z M154.445,277.398c-0.337-3.389-0.513-6.818-0.513-10.231v-34.299v-67.405v-19.342
				c21.387,2.227,76.763,4.125,130.685-26.095c18.849-10.564,34.719-12.223,47.173-4.925c18.74,10.98,26.312,40.077,26.312,50.362
				v67.405v34.299c0,3.488-0.186,6.992-0.538,10.454c-8.04,9.416-17.083,14.191-26.911,14.191c-6.248,0-10.918-3.418-16.83-7.746
				c-11.926-8.73-26.656-19.513-57.723-4.666c-31.066-14.845-45.795-4.061-57.723,4.666c-5.912,4.328-10.582,7.746-16.83,7.746
				C171.642,291.812,162.534,286.961,154.445,277.398z M260.914,301.785c-2.043-1.553-4.587-1.979-6.897-1.392
				c-0.024,0.005-0.048,0.014-0.071,0.021c-0.217,0.057-0.432,0.121-0.644,0.195c-0.086,0.03-0.169,0.067-0.255,0.1
				c-0.149,0.059-0.299,0.118-0.445,0.186c-0.126,0.058-0.249,0.124-0.374,0.19c-0.102,0.054-0.204,0.106-0.303,0.164
				c-0.159,0.092-0.313,0.194-0.467,0.298c-0.057,0.039-0.117,0.076-0.173,0.117c-0.058,0.041-0.119,0.077-0.177,0.12
				c-1.355,1.017-28.427,20.841-58.973,4.474c6.196-2.099,11.209-5.753,15.81-9.119c11.001-8.052,19.688-14.414,44.405-1.504
				c2.348,1.226,5.151,1.226,7.498,0c24.719-12.91,33.408-6.55,44.405,1.504c4.573,3.347,9.554,6.976,15.7,9.081
				C289.394,322.647,262.295,302.823,260.914,301.785z M269.775,324.37c-7.868,3.361-15.891,3.761-23.986,1.154
				c-1.151-0.37-2.252-0.793-3.313-1.241c5.717-2.091,10.341-4.503,13.533-6.393C259.245,319.805,263.95,322.26,269.775,324.37z
				 M295.057,394.015v3.483c-0.004,0.082-0.007,0.165-0.008,0.248c-0.087,5.698-12.626,13.731-32.611,15.188
				c-2.067,0.151-4.215,0.231-6.435,0.231c-1.482-0.002-2.93-0.038-4.343-0.107c-21.198-1.026-34.614-9.421-34.705-15.314
				c-0.001-0.084-0.003-0.166-0.008-0.249v-3.482v-15.166c7.285,2.556,14.778,4.353,22.428,5.425
				c0.082,0.012,0.163,0.025,0.245,0.037c0.83,0.115,1.662,0.224,2.497,0.321c1.033,0.122,2.071,0.23,3.112,0.325
				c0.542,0.049,1.085,0.092,1.63,0.133c1.274,0.098,2.553,0.181,3.838,0.239c0.271,0.012,0.543,0.018,0.814,0.028
				c1.496,0.056,2.997,0.093,4.504,0.093c1.367,0,2.729-0.031,4.086-0.078c0.242-0.009,0.485-0.011,0.726-0.021
				c0.167-0.006,0.335-0.015,0.502-0.022c1.131-0.051,2.258-0.119,3.381-0.201c0.289-0.021,0.579-0.04,0.868-0.063
				c0.405-0.032,0.809-0.071,1.214-0.107c0.587-0.054,1.173-0.117,1.758-0.179c0.58-0.06,1.161-0.117,1.74-0.186
				c0.703-0.084,1.404-0.182,2.105-0.28c0.105-0.015,0.208-0.031,0.313-0.046c0.042-0.005,0.084-0.013,0.126-0.018
				c0.72-0.103,1.441-0.202,2.159-0.318c0.838-0.135,1.672-0.285,2.505-0.438c0.74-0.135,1.478-0.273,2.214-0.422
				c0.781-0.159,1.558-0.328,2.335-0.502c0.814-0.182,1.626-0.374,2.435-0.573c0.679-0.168,1.359-0.34,2.036-0.522
				c0.948-0.252,1.892-0.519,2.834-0.795c0.529-0.156,1.058-0.309,1.585-0.472c1.155-0.356,2.302-0.735,3.446-1.126
				c0.224-0.077,0.449-0.141,0.673-0.22V394.015z M270.368,368.233c-0.134,0.018-0.269,0.037-0.403,0.055
				c-1.286,0.177-2.581,0.325-3.881,0.454c-0.327,0.032-0.654,0.066-0.983,0.095c-1.153,0.103-2.314,0.179-3.477,0.243
				c-0.369,0.019-0.738,0.048-1.108,0.064c-0.011,0-0.021,0.001-0.031,0.001c-1.483,0.065-2.972,0.104-4.469,0.104
				c-1.492,0.001-2.974-0.038-4.451-0.102c-0.477-0.021-0.95-0.057-1.425-0.084c-1.003-0.057-2.004-0.123-3-0.209
				c-0.549-0.048-1.095-0.105-1.643-0.162c-0.927-0.096-1.851-0.203-2.771-0.323c-0.553-0.072-1.105-0.147-1.654-0.229
				c-0.937-0.138-1.87-0.295-2.8-0.459c-0.505-0.09-1.012-0.173-1.514-0.27c-1.097-0.211-2.186-0.446-3.271-0.691
				c-0.321-0.072-0.645-0.135-0.964-0.211c-1.392-0.329-2.773-0.69-4.144-1.077c-0.384-0.109-0.765-0.232-1.147-0.344
				c-0.987-0.292-1.972-0.591-2.947-0.91c-0.511-0.167-1.016-0.347-1.524-0.522c-0.844-0.292-1.686-0.592-2.52-0.905
				c-0.532-0.2-1.063-0.405-1.591-0.613c-0.812-0.321-1.619-0.653-2.421-0.995c-0.514-0.218-1.029-0.435-1.539-0.662
				c-0.849-0.377-1.689-0.772-2.527-1.173c-0.442-0.211-0.887-0.413-1.325-0.63c-1.236-0.612-2.461-1.245-3.669-1.906
				c-0.301-0.164-0.594-0.342-0.892-0.51c-0.922-0.516-1.84-1.04-2.746-1.584c-0.49-0.295-0.972-0.603-1.458-0.906
				c-0.703-0.438-1.403-0.88-2.095-1.336c-0.521-0.342-1.036-0.693-1.55-1.045c-0.643-0.441-1.281-0.888-1.912-1.341
				c-0.518-0.373-1.037-0.747-1.547-1.13c-0.621-0.463-1.232-0.94-1.842-1.417c-0.497-0.389-0.997-0.773-1.486-1.172
				c-0.654-0.532-1.295-1.081-1.935-1.628c-0.607-0.518-1.212-1.04-1.806-1.572c-0.796-0.713-1.585-1.431-2.358-2.168
				c-0.489-0.466-0.963-0.948-1.444-1.424c-0.504-0.5-1.01-0.999-1.504-1.51c-0.499-0.516-0.988-1.043-1.476-1.569
				c-0.455-0.489-0.905-0.982-1.35-1.481c-0.49-0.55-0.975-1.105-1.454-1.665c-0.421-0.494-0.835-0.992-1.246-1.494
				c-0.476-0.58-0.952-1.16-1.417-1.75c-0.387-0.491-0.76-0.994-1.137-1.492c-0.467-0.617-0.938-1.229-1.391-1.856
				c-0.247-0.343-0.482-0.698-0.725-1.045c-0.956-1.362-1.879-2.748-2.77-4.159c-0.305-0.483-0.616-0.96-0.912-1.448
				c-0.417-0.686-0.818-1.382-1.218-2.079c-0.297-0.515-0.594-1.029-0.881-1.55c-0.387-0.7-0.763-1.406-1.135-2.116
				c-0.278-0.531-0.55-1.065-0.817-1.602c-0.36-0.718-0.715-1.438-1.057-2.166c-0.254-0.539-0.497-1.084-0.741-1.63
				c-0.333-0.741-0.668-1.479-0.984-2.229c-0.221-0.527-0.427-1.063-0.639-1.595c-0.293-0.731-0.594-1.458-0.87-2.197
				c0.931,0.477,1.872,0.913,2.821,1.323c18.875,19.349,38.248,24.695,53.876,24.695c0.857,0,1.693-0.029,2.527-0.06
				c3.765,3.247,10.962,8.618,20.506,11.837c4.664,1.573,10.193,2.741,16.338,2.741c10.67,0,23.189-3.525,36.205-14.572
				c0.765,0.026,1.527,0.055,2.311,0.055c15.594,0,34.917-5.324,53.753-24.57c0.985-0.418,1.963-0.861,2.929-1.35
				C338.651,337.62,307.459,362.969,270.368,368.233z" fill="#AE8959"/>
            <path d="M201.658,247.447c13.184,0,23.912-10.728,23.912-23.912c-0.001-13.187-10.728-23.914-23.912-23.914
				c-13.187,0-23.914,10.728-23.914,23.914C177.743,236.719,188.471,247.447,201.658,247.447z M201.658,215.819
				c4.253,0,7.714,3.461,7.714,7.716c-0.001,4.253-3.461,7.714-7.714,7.714c-4.254,0-7.716-3.46-7.716-7.714
				S197.403,215.819,201.658,215.819z" fill="#AE8959"/>
            <path d="M309.183,199.62c-13.187,0-23.914,10.728-23.914,23.914c0,13.184,10.728,23.912,23.914,23.912
				c13.184,0,23.912-10.728,23.912-23.912C333.095,210.348,322.367,199.62,309.183,199.62z M309.183,231.248
				c-4.254,0-7.716-3.46-7.716-7.714s3.461-7.716,7.716-7.716c4.253,0,7.714,3.461,7.714,7.716
				C316.897,227.787,313.437,231.248,309.183,231.248z" fill="#AE8959"/>
            <path d="M182.69,192.245c0.788-0.423,19.508-10.258,37.249,1.835c1.396,0.951,2.984,1.408,4.555,1.408
				c2.587,0,5.132-1.238,6.7-3.538c2.519-3.696,1.566-8.735-2.131-11.255c-26.108-17.797-53.041-3.272-54.175-2.646
				c-3.898,2.156-5.303,7.046-3.169,10.959C173.856,192.916,178.768,194.361,182.69,192.245z" fill="#AE8959"/>
            <path d="M287.51,195.487c1.571,0,3.159-0.457,4.555-1.408c17.689-12.06,36.355-2.317,37.243-1.838
				c3.909,2.138,8.817,0.719,10.977-3.185c2.164-3.915,0.746-8.842-3.168-11.007c-1.135-0.626-28.068-15.151-54.177,2.646
				c-3.696,2.519-4.65,7.558-2.131,11.255C282.379,194.25,284.921,195.487,287.51,195.487z" fill="#AE8959"/>
		</g>
	</g>
</g>
    <g>
</g>
    <g>
</g>
    <g>
</g>
    <g>
</g>
    <g>
</g>
    <g>
</g>
    <g>
</g>
    <g>
</g>
    <g>
</g>
    <g>
</g>
    <g>
</g>
    <g>
</g>
    <g>
</g>
    <g>
</g>
    <g>
</g>
</svg>
