<svg id="Layer_3" enable-background="new 0 0 64 64" height="512" viewBox="0 0 64 64" width="512"
     xmlns="http://www.w3.org/2000/svg">
    <g>
        <path d="m49 41c1.654 0 3-1.346 3-3v-14c0-1.654-1.346-3-3-3s-3 1.346-3 3v14c0 1.654 1.346 3 3 3zm0-2c-.552 0-1-.448-1-1v-4h2v4c0 .552-.448 1-1 1zm-1-7v-2h2v2zm1-9c.552 0 1 .448 1 1v4h-2v-4c0-.552.448-1 1-1z"
              fill="#AE8959"/>
        <path d="m55 61c-2.416 0-4.437-1.723-4.899-4.005 5.999-.055 10.864-4.931 10.896-10.935 0-.002.001-.003.001-.004l2-36c.016-.274-.083-.543-.271-.743-.19-.2-.453-.313-.727-.313h-3v-4c0-.553-.447-1-1-1v-3h-2v3h-2v-3h-2v3h-2v-3h-2v3h-2v-3h-2v3h-2v-3h-2v3c-.553 0-1 .447-1 1v4h-3c-.274 0-.537.113-.727.312-.188.2-.287.469-.271.743l2 36c0 .002.001.003.001.004.033 6.039 4.952 10.941 10.997 10.941h.08c.488 3.386 3.401 6 6.92 6 3.859 0 7-3.141 7-7h-2c0 2.757-2.243 5-5 5zm-14-55h16v8h-16zm-2 5v4c0 .553.447 1 1 1h18c.553 0 1-.447 1-1v-4h1.943l-1.89 34h-20.107l-1.89-34zm.056 36h19.889c-.499 4.494-4.319 8-8.944 8h-2c-4.626 0-8.446-3.506-8.945-8z"
              fill="#AE8959"/>
        <path d="m21 47h-1v-6c.182 0 .359-.049.515-.143l10-6-.009-.014c.29-.175.494-.479.494-.843v-18c0-.553-.447-1-1-1h-28c-.553 0-1 .447-1 1v18c0 .364.204.668.494.843l-.009.015 10 6c.156.093.333.142.515.142v6h-1c-.553 0-1 .447-1 1v9c0 3.309 2.691 6 6 6s6-2.691 6-6v-9c0-.553-.447-1-1-1zm-14-14v-16h2v16zm4-16h2v16h-2zm4 0h2v16h-2zm4 0h2v16h-2zm4 0h2v16h-2zm6 16h-2v-16h2zm-26-16h2v16h-2zm2.61 18h20.78l-6.667 4h-.723-6-.723zm8.39 6h4v6h-4zm6 16c0 2.206-1.794 4-4 4s-4-1.794-4-4v-8h1 6 1z"
              fill="#AE8959"/>
        <path d="m2 8c2.206 0 4 1.794 4 4 0 .553.447 1 1 1s1-.447 1-1c0-2.206 1.794-4 4-4 .553 0 1-.447 1-1s-.447-1-1-1c-2.206 0-4-1.794-4-4 0-.553-.447-1-1-1s-1 .447-1 1c0 2.206-1.794 4-4 4-.553 0-1 .447-1 1s.447 1 1 1zm5-2.687c.444.668 1.019 1.243 1.687 1.687-.668.444-1.243 1.019-1.687 1.687-.444-.668-1.019-1.243-1.687-1.687.668-.444 1.243-1.019 1.687-1.687z"
              fill="#AE8959"/>
        <path d="m34 43c-2.206 0-4-1.794-4-4 0-.553-.447-1-1-1s-1 .447-1 1c0 2.206-1.794 4-4 4-.553 0-1 .447-1 1s.447 1 1 1c2.206 0 4 1.794 4 4 0 .553.447 1 1 1s1-.447 1-1c0-2.206 1.794-4 4-4 .553 0 1-.447 1-1s-.447-1-1-1zm-5 2.687c-.444-.668-1.019-1.242-1.687-1.687.668-.444 1.242-1.019 1.687-1.687.444.668 1.019 1.242 1.687 1.687-.668.444-1.243 1.019-1.687 1.687z"
              fill="#AE8959"/>
    </g>
</svg>